<?xml version="1.0" standalone="no"?>
<!DOCTYPE svg PUBLIC "-//W3C//DTD SVG 20010904//EN"
 "http://www.w3.org/TR/2001/REC-SVG-20010904/DTD/svg10.dtd">
<svg version="1.0" xmlns="http://www.w3.org/2000/svg"
 width="379.660685pt" height="293.595776pt" viewBox="0 0 379.660685 293.595776"
 preserveAspectRatio="xMidYMid meet">
<metadata>
Created by potrace 1.12, written by Peter Selinger 2001-2015
</metadata>
<g transform="translate(-10.020904,346.619904) scale(0.100000,-0.100000)"
fill="#000000" stroke="none">
<path d="M2245 3464 c-143 -15 -381 -58 -562 -103 -183 -45 -603 -173 -619
-188 -25 -26 -35 -89 -54 -358 -11 -148 -20 -277 -20 -286 0 -14 -10 -16 -67
-13 -205 12 -357 28 -431 45 -93 22 -113 17 -147 -35 -46 -70 -24 -123 70
-172 58 -30 64 -38 40 -47 -8 -4 -47 -28 -87 -54 -187 -123 -268 -267 -268
-472 1 -413 390 -572 842 -345 48 24 94 44 101 44 9 0 24 -35 42 -102 57 -215
153 -399 256 -494 190 -174 625 -355 851 -354 130 1 190 29 258 123 24 32 58
70 75 83 49 37 154 68 378 113 382 76 478 121 601 285 37 49 82 92 137 132
189 137 228 178 249 266 11 43 10 53 -10 94 -16 33 -33 50 -56 60 -67 28 -128
16 -278 -53 -97 -45 -99 -46 -165 -37 -81 10 -238 11 -308 2 l-51 -7 -4 202
c-4 180 -6 208 -26 255 -30 73 -95 174 -166 260 -111 133 -146 177 -146 183 0
3 46 16 103 29 56 12 127 29 157 36 30 7 136 29 235 48 287 57 314 70 315 152
0 59 -1 59 -362 58 l-328 -2 -4 22 c-3 11 -14 109 -25 217 -26 239 -38 290
-81 334 -60 61 -117 79 -270 81 -74 1 -153 0 -175 -2z m464 -530 c3 -3 6 -38
6 -77 l0 -71 -75 -23 c-350 -109 -997 -218 -1472 -248 l-88 -5 0 73 c0 88 8
98 95 121 101 27 1144 205 1315 225 52 6 109 13 125 15 34 4 86 -1 94 -10z
m-368 -466 c44 -19 106 -103 173 -233 50 -97 55 -125 29 -146 -37 -31 -91
-131 -108 -199 -13 -54 -16 -100 -13 -188 4 -106 7 -124 36 -186 18 -37 32
-72 32 -77 0 -5 -19 -18 -42 -30 -105 -54 -246 -13 -352 102 -106 114 -145
229 -153 445 -8 217 27 359 113 453 77 86 175 106 285 59z m391 -155 c30 -32
81 -94 113 -137 56 -77 58 -80 47 -115 -6 -20 -23 -74 -37 -121 -47 -152 -36
-330 27 -437 l20 -33 -36 0 c-44 0 -106 30 -140 67 -36 39 -44 86 -66 385 -11
150 -22 299 -26 330 -8 73 2 118 25 118 10 0 43 -26 73 -57z m-1524 -26 c5
-28 -60 -51 -103 -37 -18 6 -39 17 -45 25 -22 26 0 36 73 33 59 -2 72 -6 75
-21z m490 -579 c93 -38 159 -81 268 -175 174 -150 265 -202 347 -203 88 0 219
55 298 127 l39 36 62 -39 c48 -29 75 -39 118 -42 51 -3 60 0 119 38 125 82
162 94 293 95 64 0 119 -3 123 -7 4 -3 -14 -32 -39 -62 -59 -72 -77 -108 -79
-155 -3 -78 55 -121 162 -121 33 0 63 -4 66 -10 15 -24 -67 -130 -140 -180
-54 -37 -141 -63 -370 -110 -282 -57 -364 -66 -482 -51 -299 36 -662 246 -805
465 -36 56 -65 132 -54 143 3 3 36 9 74 13 77 8 92 14 92 36 0 28 -64 44 -173
44 -194 0 -297 -60 -140 -81 42 -6 63 -14 77 -31 28 -34 81 -151 111 -248 68
-220 134 -350 248 -495 26 -33 43 -61 38 -63 -4 -1 -59 18 -122 44 -267 109
-416 201 -505 312 -60 75 -122 202 -134 277 -13 82 -13 206 2 263 20 80 132
173 243 203 60 16 196 4 263 -23z m425 -822 c89 -35 183 -67 209 -71 68 -10
76 -25 45 -78 -34 -58 -97 -113 -142 -126 -71 -19 -164 28 -275 141 -76 78
-114 133 -106 153 6 17 60 44 89 45 10 0 91 -29 180 -64z"/>
</g>
</svg>
